<svg width="32" height="32" viewBox="0 0 32 32" fill="none" xmlns="http://www.w3.org/2000/svg">
<mask id="mask0_131_512" style="mask-type:alpha" maskUnits="userSpaceOnUse" x="0" y="0" width="32" height="32">
<path d="M16 32C24.8366 32 32 24.8366 32 16C32 7.16344 24.8366 0 16 0C7.16344 0 0 7.16344 0 16C0 24.8366 7.16344 32 16 32Z" fill="white"/>
</mask>
<g mask="url(#mask0_131_512)">
<path d="M16 32C24.8366 32 32 24.8366 32 16C32 7.16344 24.8366 0 16 0C7.16344 0 0 7.16344 0 16C0 24.8366 7.16344 32 16 32Z" fill="#54D690"/>
</g>
<path d="M10.75 21.9183C10.0538 21.9183 9.38613 21.6523 8.89384 21.179C8.40156 20.7056 8.125 20.0636 8.125 19.3942C8.125 18.7248 8.40156 18.0828 8.89384 17.6095C9.38613 17.1361 10.0538 16.8702 10.75 16.8702C11.4462 16.8702 12.1139 17.1361 12.6062 17.6095C13.0984 18.0828 13.375 18.7248 13.375 19.3942C13.375 20.0636 13.0984 20.7056 12.6062 21.179C12.1139 21.6523 11.4462 21.9183 10.75 21.9183ZM10.75 15.7885C9.75544 15.7885 8.80161 16.1684 8.09835 16.8446C7.39509 17.5208 7 18.4379 7 19.3942C7 20.3505 7.39509 21.2677 8.09835 21.9439C8.80161 22.6201 9.75544 23 10.75 23C11.7446 23 12.6984 22.6201 13.4017 21.9439C14.1049 21.2677 14.5 20.3505 14.5 19.3942C14.5 18.4379 14.1049 17.5208 13.4017 16.8446C12.6984 16.1684 11.7446 15.7885 10.75 15.7885ZM18.1 14.3462H21.25V13.0481H18.85L17.395 10.6899C17.1775 10.3293 16.75 10.0913 16.3 10.0913C15.9475 10.0913 15.625 10.2284 15.4 10.4519L12.625 13.113C12.3925 13.3365 12.25 13.625 12.25 13.9856C12.25 14.4399 12.4975 14.8221 12.8875 15.0457L15.4 16.5096V20.1154H16.75V15.4279L15.0625 14.238L16.8025 12.5433L18.1 14.3462ZM21.25 21.9183C20.5538 21.9183 19.8861 21.6523 19.3938 21.179C18.9016 20.7056 18.625 20.0636 18.625 19.3942C18.625 18.7248 18.9016 18.0828 19.3938 17.6095C19.8861 17.1361 20.5538 16.8702 21.25 16.8702C21.9462 16.8702 22.6139 17.1361 23.1062 17.6095C23.5984 18.0828 23.875 18.7248 23.875 19.3942C23.875 20.0636 23.5984 20.7056 23.1062 21.179C22.6139 21.6523 21.9462 21.9183 21.25 21.9183ZM21.25 15.7885C20.2554 15.7885 19.3016 16.1684 18.5983 16.8446C17.8951 17.5208 17.5 18.4379 17.5 19.3942C17.5 20.3505 17.8951 21.2677 18.5983 21.9439C19.3016 22.6201 20.2554 23 21.25 23C21.7425 23 22.2301 22.9067 22.6851 22.7255C23.14 22.5443 23.5534 22.2787 23.9016 21.9439C24.2499 21.6091 24.5261 21.2116 24.7145 20.7741C24.903 20.3366 25 19.8677 25 19.3942C25 18.9207 24.903 18.4518 24.7145 18.0144C24.5261 17.5769 24.2499 17.1794 23.9016 16.8446C23.5534 16.5097 23.14 16.2441 22.6851 16.0629C22.2301 15.8817 21.7425 15.7885 21.25 15.7885ZM19 10.5962C19.75 10.5962 20.35 10.0192 20.35 9.29808C20.35 8.57692 19.75 8 19 8C18.25 8 17.65 8.57692 17.65 9.29808C17.65 10.0192 18.25 10.5962 19 10.5962Z" fill="white"/>
</svg>
