<svg width="32" height="32" viewBox="0 0 32 32" fill="none" xmlns="http://www.w3.org/2000/svg">
<mask id="mask0_131_514" style="mask-type:alpha" maskUnits="userSpaceOnUse" x="0" y="0" width="32" height="32">
<path d="M16 32C24.8366 32 32 24.8366 32 16C32 7.16344 24.8366 0 16 0C7.16344 0 0 7.16344 0 16C0 24.8366 7.16344 32 16 32Z" fill="white"/>
</mask>
<g mask="url(#mask0_131_514)">
<path d="M16 32C24.8366 32 32 24.8366 32 16C32 7.16344 24.8366 0 16 0C7.16344 0 0 7.16344 0 16C0 24.8366 7.16344 32 16 32Z" fill="#FF7AD2"/>
<path d="M19.64 23V21.88H17.4V18.7125L22.335 12.2025L22.44 12.045V11.24H15.02C14.845 10.5867 14.4833 10.05 13.935 9.63C13.3867 9.21 12.7683 9 12.08 9C11.52 9 11.0038 9.13708 10.5312 9.41125C10.0588 9.68542 9.68542 10.0588 9.41125 10.5312C9.13708 11.0038 9 11.52 9 12.08C9 12.64 9.13708 13.1562 9.41125 13.6287C9.68542 14.1012 10.0588 14.4746 10.5312 14.7487C11.0038 15.0229 11.52 15.16 12.08 15.16C12.5117 15.16 12.9375 15.0608 13.3575 14.8625L16.28 18.7125V21.88H14.04V23H19.64ZM12.08 14.04C11.7183 14.04 11.3888 13.9525 11.0913 13.7775C10.7938 13.6025 10.5575 13.3663 10.3825 13.0688C10.2075 12.7713 10.12 12.4417 10.12 12.08C10.12 11.7183 10.2075 11.3888 10.3825 11.0913C10.5575 10.7938 10.7938 10.5575 11.0913 10.3825C11.3888 10.2075 11.7183 10.12 12.08 10.12C12.465 10.12 12.815 10.225 13.13 10.435C13.445 10.645 13.6783 10.9133 13.83 11.24H11.24V12.045L11.345 12.2025L12.6575 13.935C12.4592 14.005 12.2667 14.04 12.08 14.04ZM16.84 17.5925L12.885 12.36H20.795L19.955 13.48H14.88L15.72 14.6H19.0975L16.84 17.5925Z" fill="white"/>
</g>
</svg>
