<svg width="32" height="32" viewBox="0 0 32 32" fill="none" xmlns="http://www.w3.org/2000/svg">
<mask id="mask0_131_509" style="mask-type:alpha" maskUnits="userSpaceOnUse" x="0" y="0" width="32" height="32">
<path d="M16 32C24.8366 32 32 24.8366 32 16C32 7.16344 24.8366 0 16 0C7.16344 0 0 7.16344 0 16C0 24.8366 7.16344 32 16 32Z" fill="white"/>
</mask>
<g mask="url(#mask0_131_509)">
<path d="M16 32C24.8366 32 32 24.8366 32 16C32 7.16344 24.8366 0 16 0C7.16344 0 0 7.16344 0 16C0 24.8366 7.16344 32 16 32Z" fill="#FFBC61"/>
</g>
<path d="M16 10.3735L20.5 14.3441V21.2353H18.7V15.9412H13.3V21.2353H11.5V14.3441L16 10.3735ZM16 8L7 15.9412H9.7V23H15.1V17.7059H16.9V23H22.3V15.9412H25" fill="white"/>
</svg>
