<svg width="32" height="32" viewBox="0 0 32 32" fill="none" xmlns="http://www.w3.org/2000/svg">
<mask id="mask0_131_508" style="mask-type:alpha" maskUnits="userSpaceOnUse" x="0" y="0" width="32" height="32">
<path d="M16 32C24.8366 32 32 24.8366 32 16C32 7.16344 24.8366 0 16 0C7.16344 0 0 7.16344 0 16C0 24.8366 7.16344 32 16 32Z" fill="white"/>
</mask>
<g mask="url(#mask0_131_508)">
<path d="M16 32C24.8366 32 32 24.8366 32 16C32 7.16344 24.8366 0 16 0C7.16344 0 0 7.16344 0 16C0 24.8366 7.16344 32 16 32Z" fill="#D763D7"/>
<path d="M19.1586 22.9564C19.7231 22.8654 20.2238 22.6317 20.6608 22.2554C21.0856 21.9034 21.3891 21.4755 21.5712 20.9717C21.7532 20.468 21.8109 19.9491 21.7441 19.415C21.6774 18.8809 21.4862 18.3953 21.1706 17.9583C21.6561 17.7156 22.0567 17.3817 22.3723 16.9569C22.6879 16.532 22.8852 16.0586 22.9641 15.5367C23.043 15.0147 22.9884 14.5049 22.8002 14.0072C22.6121 13.5095 22.3268 13.0938 21.9444 12.7599C21.5621 12.4261 21.1281 12.1955 20.6426 12.068C20.157 11.9406 19.6654 11.9254 19.1677 12.0225C19.1313 11.4763 18.9705 10.9695 18.6852 10.5022C18.3999 10.0348 18.0206 9.66763 17.5472 9.40058C17.0738 9.13353 16.5579 9 15.9995 9C15.4411 9 14.9252 9.13353 14.4518 9.40058C13.9784 9.66763 13.5991 10.0348 13.3138 10.5022C13.0286 10.9695 12.8677 11.4763 12.8313 12.0225C12.3336 11.9254 11.842 11.9406 11.3565 12.068C10.8709 12.1955 10.437 12.4261 10.0546 12.7599C9.67225 13.0938 9.38699 13.5065 9.19884 13.9981C9.01069 14.4897 8.95607 14.9965 9.03497 15.5185C9.11387 16.0404 9.30809 16.5138 9.61762 16.9387C9.92716 17.3635 10.3186 17.6973 10.792 17.9401C10.4764 18.3771 10.2852 18.8627 10.2185 19.3968C10.1517 19.9309 10.2124 20.4498 10.4006 20.9535C10.5887 21.4573 10.8952 21.8852 11.3201 22.2372C11.7571 22.6135 12.2578 22.8472 12.8222 22.9382C13.3867 23.0292 13.9359 22.9777 14.47 22.7834C15.0042 22.5892 15.4594 22.2736 15.8356 21.8366C15.8599 21.8002 15.8903 21.7456 15.9267 21.6728L15.9813 21.5453L16.0359 21.6728C16.0724 21.7577 16.1088 21.8184 16.1452 21.8548C16.5215 22.2918 16.9767 22.6074 17.5108 22.8016C18.0449 22.9959 18.5942 23.0475 19.1586 22.9564ZM16.1998 15.1361C16.4547 14.2985 16.5822 13.8039 16.5822 13.6521C16.5822 13.5004 16.5245 13.3669 16.4092 13.2516C16.2939 13.1362 16.1573 13.0786 15.9995 13.0786C15.8417 13.0786 15.7052 13.1362 15.5898 13.2516C15.4745 13.3669 15.4169 13.4974 15.4169 13.643C15.4169 13.7887 15.52 14.2682 15.7264 15.0815L14.0331 12.5323C13.9845 12.3624 13.9602 12.2532 13.9602 12.2046C13.9602 11.8283 14.0513 11.4854 14.2333 11.1759C14.4154 10.8663 14.6612 10.6205 14.9708 10.4384C15.2803 10.2564 15.6232 10.1653 15.9995 10.1653C16.3758 10.1653 16.7187 10.2564 17.0283 10.4384C17.3378 10.6205 17.5836 10.8663 17.7657 11.1759C17.9478 11.4854 18.0388 11.8283 18.0388 12.2046C18.0388 12.3017 18.0024 12.4534 17.9296 12.6598L16.1998 15.1361ZM11.666 17.0843C11.6175 17.0722 11.5628 17.054 11.5021 17.0297H11.4839C11.1319 16.8962 10.8436 16.6898 10.6191 16.4106C10.3945 16.1315 10.2519 15.8128 10.1912 15.4547C10.1305 15.0966 10.1669 14.7416 10.3004 14.3896C10.4461 14.0011 10.6889 13.6886 11.0287 13.4519C11.3686 13.2151 11.7389 13.0907 12.1394 13.0786C12.4186 13.0664 12.6857 13.1089 12.9406 13.206C12.9649 13.2182 13.0134 13.2485 13.0862 13.2971L13.1591 13.3517H13.1773L14.7978 15.8098C14.1059 15.3364 13.6871 15.0724 13.5414 15.0177C13.3958 14.9631 13.2471 14.9722 13.0953 15.045C12.9436 15.1179 12.8404 15.2271 12.7858 15.3728C12.7312 15.5185 12.7403 15.6672 12.8131 15.8189C12.886 15.9706 12.9922 16.0708 13.1318 16.1193C13.2714 16.1679 13.766 16.2164 14.6157 16.265L11.666 17.0843ZM20.1327 17.1026L17.2923 16.265C18.2027 16.2164 18.7277 16.1679 18.8673 16.1193C19.0069 16.0708 19.1131 15.9706 19.1859 15.8189C19.2587 15.6672 19.2679 15.5185 19.2132 15.3728C19.1586 15.2271 19.0554 15.1179 18.9037 15.045C18.752 14.9722 18.6002 14.9661 18.4485 15.0268C18.2968 15.0875 17.8507 15.3667 17.1102 15.8644L18.8764 13.3153C18.9614 13.2546 19.022 13.2182 19.0585 13.206C19.3134 13.1089 19.5804 13.0664 19.8596 13.0786C20.2602 13.0907 20.6304 13.2151 20.9703 13.4519C21.3102 13.6886 21.553 14.0011 21.6986 14.3896C21.8321 14.7416 21.8686 15.0966 21.8079 15.4547C21.7472 15.8128 21.6045 16.1315 21.38 16.4106C21.1554 16.6898 20.8671 16.8962 20.5151 17.0297C20.418 17.0661 20.2905 17.0904 20.1327 17.1026ZM13.0225 21.8002C12.6644 21.7395 12.3458 21.5878 12.0666 21.345C11.7874 21.1022 11.5841 20.8109 11.4566 20.471C11.3292 20.1311 11.2958 19.7822 11.3565 19.4241C11.4172 19.066 11.5689 18.7473 11.8117 18.4681C11.8845 18.3832 12.012 18.2861 12.1941 18.1768L12.2669 18.1404L15.0163 17.3757C14.2516 17.9098 13.8176 18.2345 13.7144 18.3498C13.6112 18.4651 13.5688 18.6047 13.587 18.7686C13.6052 18.9325 13.675 19.069 13.7964 19.1783C13.9177 19.2875 14.0573 19.333 14.2151 19.3148C14.3729 19.2966 14.5065 19.2238 14.6157 19.0963C14.725 18.9689 14.992 18.4196 15.4169 17.4485V19.597C15.3683 19.9369 15.2985 20.2465 15.2075 20.5257C15.1164 20.8048 15.0284 20.993 14.9435 21.0901C14.7007 21.3693 14.4094 21.5726 14.0695 21.7001C13.7296 21.8275 13.3806 21.8609 13.0225 21.8002ZM17.9114 21.7183C17.5715 21.5908 17.2801 21.3875 17.0374 21.1083C16.9645 21.0233 16.8826 20.8473 16.7916 20.5803C16.7005 20.3132 16.6307 20.0219 16.5822 19.7063V17.4485C17.007 18.4196 17.2741 18.9689 17.3833 19.0963C17.4926 19.2238 17.6261 19.2966 17.7839 19.3148C17.9417 19.333 18.0813 19.2875 18.2027 19.1783C18.3241 19.069 18.3939 18.9325 18.4121 18.7686C18.4303 18.6047 18.3878 18.4651 18.2846 18.3498C18.1814 18.2345 17.7657 17.9219 17.0374 17.4121L19.8232 18.2132C19.9931 18.3225 20.1085 18.4135 20.1691 18.4864C20.4119 18.7655 20.5637 19.0842 20.6243 19.4423C20.685 19.8004 20.6517 20.1494 20.5242 20.4892C20.3967 20.8291 20.1934 21.1204 19.9142 21.3632C19.635 21.606 19.3164 21.7577 18.9583 21.8184C18.6002 21.8791 18.2512 21.8457 17.9114 21.7183Z" fill="white"/>
</g>
</svg>
