<svg width="32" height="32" viewBox="0 0 32 32" fill="none" xmlns="http://www.w3.org/2000/svg">
<mask id="mask0_131_513" style="mask-type:alpha" maskUnits="userSpaceOnUse" x="0" y="0" width="32" height="32">
<path d="M16 32C24.8366 32 32 24.8366 32 16C32 7.16344 24.8366 0 16 0C7.16344 0 0 7.16344 0 16C0 24.8366 7.16344 32 16 32Z" fill="white"/>
</mask>
<g mask="url(#mask0_131_513)">
<path d="M16 32C24.8366 32 32 24.8366 32 16C32 7.16344 24.8366 0 16 0C7.16344 0 0 7.16344 0 16C0 24.8366 7.16344 32 16 32Z" fill="#F0626C"/>
<path d="M13.6522 23V16.2473C14.3496 16.1078 14.9266 15.7717 15.3832 15.2391C15.8524 14.6812 16.087 14.0217 16.087 13.2609C16.087 12.817 16.0172 12.3605 15.8777 11.8913C15.7382 11.4221 15.5417 10.9783 15.288 10.5598C15.0091 10.1033 14.6984 9.74185 14.356 9.47554C13.9375 9.15851 13.5 9 13.0435 9C12.587 9 12.1495 9.15851 11.731 9.47554C11.3886 9.74185 11.0779 10.1033 10.7989 10.5598C10.5453 10.9783 10.3487 11.4221 10.2092 11.8913C10.0697 12.3605 10 12.817 10 13.2609C10 14.0217 10.2346 14.6812 10.7038 15.2391C11.1603 15.7717 11.7373 16.1078 12.4348 16.2473V23H13.6522ZM20.3478 23V15.6005C20.8804 15.4611 21.3179 15.1757 21.6603 14.7446C22.0027 14.3134 22.1739 13.8188 22.1739 13.2609V9H20.9565V13.2609C20.9565 13.6033 20.8392 13.8918 20.6046 14.1264C20.37 14.361 20.0815 14.4783 19.7391 14.4783C19.3967 14.4783 19.1082 14.361 18.8736 14.1264C18.639 13.8918 18.5217 13.6033 18.5217 13.2609V9H17.3043V13.2609C17.3043 13.8188 17.4755 14.3134 17.8179 14.7446C18.1603 15.1757 18.5978 15.4611 19.1304 15.6005V23H20.3478ZM19.7391 13.8696C19.904 13.8696 20.0466 13.8093 20.1671 13.6889C20.2876 13.5684 20.3478 13.4257 20.3478 13.2609V9H19.1304V13.2609C19.1304 13.4257 19.1907 13.5684 19.3111 13.6889C19.4316 13.8093 19.5743 13.8696 19.7391 13.8696ZM13.0435 15.087C12.4855 15.087 12.0417 14.9316 11.712 14.6209C11.3822 14.3102 11.2174 13.8569 11.2174 13.2609C11.2174 12.9565 11.2745 12.611 11.3886 12.2242C11.5027 11.8374 11.6549 11.4918 11.8451 11.1875C12.0353 10.8832 12.2382 10.6454 12.4538 10.4742C12.6694 10.303 12.8659 10.2174 13.0435 10.2174C13.221 10.2174 13.4176 10.303 13.6332 10.4742C13.8487 10.6454 14.0516 10.8832 14.2418 11.1875C14.4321 11.4918 14.5842 11.8374 14.6984 12.2242C14.8125 12.611 14.8696 12.9565 14.8696 13.2609C14.8696 13.8569 14.7047 14.3102 14.375 14.6209C14.0453 14.9316 13.6014 15.087 13.0435 15.087Z" fill="white"/>
</g>
</svg>
