<svg width="32" height="32" viewBox="0 0 32 32" fill="none" xmlns="http://www.w3.org/2000/svg">
<mask id="mask0_131_511" style="mask-type:alpha" maskUnits="userSpaceOnUse" x="0" y="0" width="32" height="32">
<path d="M16 32C24.8366 32 32 24.8366 32 16C32 7.16344 24.8366 0 16 0C7.16344 0 0 7.16344 0 16C0 24.8366 7.16344 32 16 32Z" fill="white"/>
</mask>
<g mask="url(#mask0_131_511)">
<path d="M16 32C24.8366 32 32 24.8366 32 16C32 7.16344 24.8366 0 16 0C7.16344 0 0 7.16344 0 16C0 24.8366 7.16344 32 16 32Z" fill="#846FCD"/>
</g>
<path d="M17.8708 15.0917H22V13.6055H18.9369L17.2446 10.856C16.9908 10.4431 16.5338 10.1624 16.0092 10.1624C15.8569 10.1624 15.7215 10.1872 15.5862 10.2284L11 11.6239V15.9174H12.5231V12.8872L14.3085 12.3422L11 25H12.5231L14.9515 18.3037L16.9231 20.8716V25H18.4462V19.7073L16.3392 15.9587L16.9569 13.589L17.8708 15.0917ZM17.7692 9.97248C18.6154 9.97248 19.2923 9.31193 19.2923 8.48624C19.2923 7.66055 18.6154 7 17.7692 7C16.9231 7 16.2462 7.66055 16.2462 8.48624C16.2462 9.31193 16.9231 9.97248 17.7692 9.97248Z" fill="white"/>
</svg>
