<svg width="32" height="32" viewBox="0 0 32 32" fill="none" xmlns="http://www.w3.org/2000/svg">
<mask id="mask0_131_510" style="mask-type:alpha" maskUnits="userSpaceOnUse" x="0" y="0" width="32" height="32">
<path d="M16 32C24.8366 32 32 24.8366 32 16C32 7.16344 24.8366 0 16 0C7.16344 0 0 7.16344 0 16C0 24.8366 7.16344 32 16 32Z" fill="white"/>
</mask>
<g mask="url(#mask0_131_510)">
<path d="M16 32C24.8366 32 32 24.8366 32 16C32 7.16344 24.8366 0 16 0C7.16344 0 0 7.16344 0 16C0 24.8366 7.16344 32 16 32Z" fill="#55C2F0"/>
</g>
<path d="M9.70211 16.0866L15.319 7.74873V16.0866H9.70211ZM16.3721 16.0866C17.32 13.3606 17.1936 9.6969 16.3721 7C19.7141 8.11947 22.2698 12.3793 22.3119 16.0866H16.3721ZM22.4102 18.689C22.1224 19.1542 21.7854 19.554 21.3922 19.8957C20.9358 19.6849 20.5286 19.3578 20.2056 18.9943C19.1595 20.3973 17.0461 20.3973 16 18.9943C14.9679 20.3973 12.8405 20.3973 11.8084 18.9943C11.4574 19.3578 11.0712 19.6849 10.6148 19.8957C9.81444 19.2124 9.21063 18.2383 9 17.177H23C22.8877 17.7222 22.6911 18.2237 22.4102 18.689ZM22.3119 22.9924C21.5677 22.9924 20.8656 22.8107 20.2056 22.4472C18.9137 23.1741 17.2919 23.1741 16 22.4472C14.7081 23.1741 13.0863 23.1741 11.8084 22.4472C10.9448 22.9488 9.95486 23.0287 9 22.9924V21.5385C9.98997 21.5749 10.9448 21.4658 11.8084 20.8116C13.0301 21.7203 14.7643 21.7203 16 20.8116C17.2427 21.7203 18.9699 21.7203 20.2056 20.8116C21.0552 21.4658 22.0171 21.5749 23 21.5385V22.9924H22.3119Z" fill="white"/>
</svg>
