<?xml version="1.0" encoding="utf-8"?>
<!-- Generator: Adobe Illustrator 25.2.0, SVG Export Plug-In . SVG Version: 6.00 Build 0)  -->
<svg version="1.1" id="Слой_1" xmlns="http://www.w3.org/2000/svg" xmlns:xlink="http://www.w3.org/1999/xlink" x="0px" y="0px"
	 viewBox="0 0 20 20" style="enable-background:new 0 0 20 20;" xml:space="preserve">
<style type="text/css">
	.st0{fill:#5D5D5D;}
</style>
<desc>Created with Sketch.</desc>
<g id="City-Guide">
	<g id="_x30_3_x5F_Place-Detail-1" transform="translate(-878.000000, -569.000000)">
		<g id="detail" transform="translate(135.000000, 569.000000)">
			<g id="amenities">
				<g id="_x31_" transform="translate(119.000000, 0.000000)">
					<g id="icon_car" transform="translate(624.000000, 0.000000)">
						<path id="Path" class="st0" d="M3.9,18.1c-0.2,0-0.3,0.1-0.3,0.3v0.8H0.7V17c0-0.2-0.1-0.3-0.3-0.3S0,16.8,0,17v2.6
							c0,0.2,0.1,0.3,0.3,0.3h3.6c0.2,0,0.3-0.1,0.3-0.3v-1.2C4.2,18.3,4.1,18.1,3.9,18.1z"/>
						<path id="Path_1_" class="st0" d="M19.3,16.7c-0.2,0-0.3,0.1-0.3,0.3v2.3H16v-0.9c0-0.2-0.1-0.3-0.3-0.3
							c-0.2,0-0.3,0.1-0.3,0.3v1.2c0,0.2,0.1,0.3,0.3,0.3h3.6c0.2,0,0.3-0.1,0.3-0.3V17C19.6,16.8,19.5,16.7,19.3,16.7z"/>
						<path id="Path_2_" class="st0" d="M6.7,18H1.8c-0.6,0-1.2-0.5-1.2-1.2V14c0-0.2-0.1-0.3-0.3-0.3S0,13.9,0,14v2.8
							c0,1,0.8,1.8,1.8,1.8h4.9c0.2,0,0.3-0.1,0.3-0.3C7,18.1,6.9,18,6.7,18z"/>
						<path id="Path_3_" class="st0" d="M19.3,13.7c-0.2,0-0.3,0.1-0.3,0.3v2.8c0,0.6-0.5,1.2-1.2,1.2h-5.2c-0.2,0-0.3,0.1-0.3,0.3
							c0,0.2,0.1,0.3,0.3,0.3h5.2c1,0,1.8-0.8,1.8-1.8V14C19.6,13.9,19.5,13.7,19.3,13.7z"/>
						<path id="Path_4_" class="st0" d="M17.5,10.2l-0.1-1c0-0.1,0-0.2-0.1-0.3c0-0.2-0.2-0.3-0.4-0.2c-0.2,0-0.3,0.2-0.2,0.4
							c0,0.1,0,0.2,0,0.2l0.1,1c0,0.2,0.2,0.3,0.3,0.3c0,0,0,0,0,0C17.4,10.5,17.5,10.4,17.5,10.2z"/>
						<path id="Path_5_" class="st0" d="M11.1,6.2H5.6c-1.7,0-3.2,1.3-3.4,2.9l-0.2,1.1c0,0.2,0.1,0.3,0.3,0.4c0,0,0,0,0,0
							c0.2,0,0.3-0.1,0.3-0.3l0.2-1.1c0.2-1.4,1.4-2.4,2.8-2.4h5.5c0.2,0,0.3-0.1,0.3-0.3S11.3,6.2,11.1,6.2z"/>
						<path id="Shape" class="st0" d="M18.2,11.1c-0.3-0.3-0.5-0.6-0.7-1c0-0.1-0.1-0.2-0.2-0.2c-0.1,0-0.2,0-0.3,0.1
							c-0.6,0.5-1.3,0.8-2,0.8H4.7c-0.8,0-1.5-0.3-2-0.8C2.5,9.9,2.4,9.9,2.3,9.9c-0.1,0-0.2,0.1-0.2,0.2c-0.2,0.4-0.4,0.8-0.7,1
							C0.5,12.1,0,13.3,0,14.6C0,15.9,1.1,17,2.5,17h14.6c1.3,0,2.5-1.1,2.5-2.4C19.6,13.3,19.1,12.1,18.2,11.1z M17.1,16.3H2.5
							c-1,0-1.8-0.8-1.8-1.8c0-1.1,0.4-2.2,1.2-3c0.3-0.3,0.5-0.5,0.7-0.9c0.6,0.4,1.4,0.7,2.1,0.7h10.3c0.8,0,1.5-0.2,2.1-0.7
							c0.2,0.3,0.4,0.6,0.7,0.9c0.8,0.8,1.2,1.8,1.2,3C18.9,15.5,18.1,16.3,17.1,16.3z"/>
						<path id="Path_6_" class="st0" d="M5.5,7.6C5.3,7.5,5.1,7.5,5,7.6l-1,1C3.9,8.7,3.9,8.9,4,9.1c0.1,0.1,0.1,0.1,0.2,0.1
							c0.1,0,0.2,0,0.2-0.1l1-1C5.6,7.9,5.6,7.7,5.5,7.6z"/>
						<path id="Path_7_" class="st0" d="M7.1,7.3C7,7.2,6.8,7.2,6.6,7.3L4.2,9.7c-0.1,0.1-0.1,0.3,0,0.5c0.1,0.1,0.1,0.1,0.2,0.1
							s0.2,0,0.2-0.1l2.4-2.4C7.2,7.6,7.2,7.4,7.1,7.3z"/>
						<path id="Path_8_" class="st0" d="M13.4,8.8c-1.3,0-2.3,1-2.3,2.3c0,0.2,0.1,0.3,0.3,0.3c0.2,0,0.3-0.1,0.3-0.3
							c0-0.9,0.7-1.6,1.6-1.6s1.6,0.7,1.6,1.6c0,0.2,0.1,0.3,0.3,0.3c0.2,0,0.3-0.1,0.3-0.3C15.7,9.8,14.7,8.8,13.4,8.8z"/>
						<path id="Shape_1_" class="st0" d="M3.9,13.7H1.3C1.1,13.7,1,13.9,1,14v0.7c0,0.5,0.4,1,1,1h2c0.5,0,1-0.4,1-1
							C4.9,14.2,4.5,13.7,3.9,13.7z M3.9,15H2c-0.2,0-0.3-0.1-0.3-0.3v-0.3h2.3c0.2,0,0.3,0.1,0.3,0.3S4.1,15,3.9,15z"/>
						<path id="Shape_2_" class="st0" d="M18.3,13.7h-2.6c-0.5,0-1,0.4-1,1c0,0.5,0.4,1,1,1h2c0.5,0,1-0.4,1-1V14
							C18.6,13.9,18.5,13.7,18.3,13.7z M18,14.7c0,0.2-0.1,0.3-0.3,0.3h-2c-0.2,0-0.3-0.1-0.3-0.3s0.1-0.3,0.3-0.3H18V14.7z"/>
						<path id="Shape_3_" class="st0" d="M12.4,16.3H6.9c-0.2,0-0.3,0.1-0.3,0.3v2c0,0.2,0.1,0.3,0.3,0.3h5.6c0.2,0,0.3-0.1,0.3-0.3
							v-2C12.7,16.5,12.6,16.3,12.4,16.3z M12.1,18.3H7.2V17h4.9V18.3z"/>
						<path id="Shape_4_" class="st0" d="M12.9,13.4H6.7c-0.6,0-1.1,0.5-1.1,1.1c0,0.6,0.5,1.1,1.1,1.1h6.2c0.6,0,1.1-0.5,1.1-1.1
							C14,13.9,13.5,13.4,12.9,13.4z M12.9,15H6.7c-0.3,0-0.5-0.2-0.5-0.5S6.4,14,6.7,14h6.2c0.3,0,0.5,0.2,0.5,0.5
							C13.4,14.8,13.2,15,12.9,15z"/>
						<path id="Path_9_" class="st0" d="M7.8,13.4c-0.2,0-0.3,0.1-0.3,0.3v1.6c0,0.2,0.1,0.3,0.3,0.3c0.2,0,0.3-0.1,0.3-0.3v-1.6
							C8.2,13.5,8,13.4,7.8,13.4z"/>
						<path id="Path_10_" class="st0" d="M9.8,13.4c-0.2,0-0.3,0.1-0.3,0.3v1.6c0,0.2,0.1,0.3,0.3,0.3c0.2,0,0.3-0.1,0.3-0.3v-1.6
							C10.1,13.5,10,13.4,9.8,13.4z"/>
						<path id="Path_11_" class="st0" d="M11.8,13.4c-0.2,0-0.3,0.1-0.3,0.3v1.6c0,0.2,0.1,0.3,0.3,0.3c0.2,0,0.3-0.1,0.3-0.3v-1.6
							C12.1,13.5,11.9,13.4,11.8,13.4z"/>
						<path id="Shape_5_" class="st0" d="M15.2,0c-2.6,0-4.7,2.1-4.7,4.7s2.1,4.7,4.7,4.7s4.7-2.1,4.7-4.7S17.8,0,15.2,0z M15.2,8.8
							c-2.3,0-4.1-1.8-4.1-4.1c0-2.3,1.8-4.1,4.1-4.1s4.1,1.8,4.1,4.1S17.4,8.8,15.2,8.8z"/>
						<path id="Shape_6_" class="st0" d="M16.5,3c-0.3-0.2-0.7-0.4-1.3-0.4c-0.5,0-0.9,0-1.1,0.1h0v4.6h0.6V5.4c0.1,0,0.3,0,0.5,0
							c0.6,0,1.1-0.2,1.4-0.5c0.2-0.2,0.4-0.6,0.4-1C17,3.5,16.8,3.2,16.5,3z M15.2,5c-0.2,0-0.4,0-0.5,0V3.1c0.1,0,0.3,0,0.6,0
							c0.7,0,1.1,0.3,1.1,0.9C16.4,4.6,15.9,5,15.2,5z"/>
					</g>
				</g>
			</g>
		</g>
	</g>
</g>
</svg>
