<svg xmlns="http://www.w3.org/2000/svg" viewBox="0 0 664.69 132.36"><defs><style>.cls-1,.cls-2{fill:#313131;}.cls-2{font-size:60px;font-family:Jost-Medium, "Jost*";font-weight:500;}</style></defs><g id="Слой_2" data-name="Слой 2"><g id="Graphic_Elements" data-name="Graphic Elements"><path class="cls-1" d="M75.35,100.25c28.28-18,60.27-19.54,87.27,6.85a4,4,0,0,1,.62,3.42h0a2.24,2.24,0,0,1-.84,1.46c-28.25,16.52-60.15,18.21-87.21-6.85a5.66,5.66,0,0,1-.72-1.68C74.28,102.1,74.66,100.68,75.35,100.25Z"/><path class="cls-1" d="M0,59.33c19.78,7.34,35.32,9,61.81-2.85S94.44,42.4,105.36,42.14,126,43,144.67,55.83s36.68,32.35,55.43,35.09a111.32,111.32,0,0,1-19.49-4c-11.52-3.3-32.56-13.51-44.07-14.91s-23.19-5.82-48.36,4.39S53.92,88.18,35.62,85.93,0,59.33,0,59.33Z"/><path class="cls-1" d="M264.36,58.21c-8.16,13-13.87,17-21.28,20.78-10.23,5.22-17.82,5.42-30,5.27-13.8-.17-28-9.13-35-15-19-16-46.12-34.58-65.7-40.58-6.53-2-20.15-7.47-34.11-5.18,0,0,19.67-10.24,40.07-11.24,22.42-1.1,41.47,11.4,59.74,28,19.13,17.39,30.11,22.85,38,24C250.33,69.26,264.36,58.21,264.36,58.21Z"/><text class="cls-2" transform="translate(314.96 51)">Браславские<tspan x="0" y="60">озера</tspan></text></g></g></svg>